<svg id="svg" version="1.1" xmlns="http://www.w3.org/2000/svg" xmlns:xlink="http://www.w3.org/1999/xlink" width="400" height="400" viewBox="0, 0, 400,400"><g id="svgg"><path id="path0" d="M93.800 261.412 C 93.140 261.953,92.448 262.397,92.262 262.398 C 92.076 262.399,91.446 262.733,90.862 263.139 C 90.278 263.545,88.810 264.422,87.600 265.087 C 86.390 265.751,83.150 267.601,80.400 269.197 C 77.650 270.793,74.770 272.457,74.000 272.894 C 73.230 273.331,70.260 275.048,67.400 276.710 C 64.540 278.371,61.210 280.269,60.000 280.926 C 58.790 281.584,57.322 282.455,56.738 282.861 C 56.154 283.267,55.583 283.600,55.468 283.600 C 55.353 283.600,53.792 284.500,52.000 285.600 C 50.208 286.700,48.677 287.600,48.598 287.600 C 48.519 287.600,44.528 289.876,39.728 292.658 C 34.927 295.441,29.966 298.276,28.701 298.958 C 26.658 300.062,25.693 301.200,26.800 301.200 C 27.020 301.200,27.200 301.518,27.200 301.907 C 27.200 302.296,27.650 303.277,28.200 304.086 C 28.750 304.895,29.200 305.747,29.200 305.979 C 29.200 306.210,29.350 306.400,29.532 306.400 C 29.715 306.400,30.120 306.895,30.432 307.500 C 30.745 308.105,31.315 308.949,31.700 309.375 C 32.085 309.802,32.400 310.387,32.400 310.675 C 32.400 310.964,32.550 311.200,32.732 311.200 C 32.915 311.200,33.319 311.695,33.630 312.300 C 33.940 312.905,34.511 313.691,34.897 314.047 C 35.284 314.403,35.600 314.948,35.600 315.259 C 35.600 315.569,35.960 316.083,36.400 316.400 C 36.840 316.717,37.200 317.180,37.200 317.429 C 37.200 317.678,37.740 318.446,38.400 319.137 C 39.060 319.828,39.600 320.548,39.600 320.737 C 39.600 320.926,40.140 321.646,40.800 322.337 C 41.460 323.028,42.000 323.693,42.000 323.815 C 42.000 323.937,42.405 324.461,42.900 324.981 C 43.831 325.958,44.567 326.898,45.600 328.430 C 45.930 328.919,46.922 330.058,47.805 330.960 C 48.688 331.862,49.855 333.230,50.398 334.000 C 50.940 334.770,52.828 336.795,54.592 338.499 C 56.356 340.204,58.340 342.145,59.000 342.814 C 64.781 348.671,66.575 350.400,66.872 350.400 C 67.062 350.400,68.207 351.390,69.417 352.600 C 70.627 353.810,71.787 354.800,71.995 354.800 C 72.203 354.800,72.987 355.414,73.738 356.164 C 74.488 356.915,75.664 357.820,76.351 358.175 C 77.038 358.530,77.600 358.966,77.600 359.143 C 77.600 359.320,78.095 359.720,78.700 360.032 C 79.305 360.345,80.277 361.095,80.860 361.700 C 81.444 362.305,82.169 362.800,82.472 362.800 C 82.775 362.800,83.283 363.160,83.600 363.600 C 83.917 364.040,84.362 364.400,84.588 364.401 C 84.815 364.401,85.630 364.941,86.400 365.600 C 87.170 366.259,88.025 366.799,88.300 366.799 C 88.575 366.800,88.800 366.950,88.800 367.132 C 88.800 367.315,89.295 367.720,89.900 368.032 C 90.505 368.345,91.349 368.915,91.775 369.300 C 92.202 369.685,92.787 370.000,93.075 370.000 C 93.364 370.000,93.600 370.180,93.600 370.400 C 93.600 370.620,93.793 370.800,94.028 370.800 C 94.263 370.800,95.241 371.340,96.200 372.000 C 97.159 372.660,98.122 373.200,98.339 373.200 C 98.556 373.200,98.793 373.335,98.867 373.500 C 99.077 373.973,101.456 375.200,102.162 375.200 C 102.513 375.200,102.800 375.380,102.800 375.600 C 102.800 375.820,103.160 376.000,103.600 376.000 C 104.040 376.000,104.400 376.180,104.400 376.400 C 104.400 376.620,104.760 376.800,105.200 376.800 C 105.640 376.800,106.000 376.980,106.000 377.200 C 106.000 377.420,106.236 377.600,106.525 377.600 C 106.813 377.600,107.436 377.960,107.908 378.400 C 108.380 378.840,109.044 379.200,109.383 379.200 C 109.722 379.200,110.000 379.380,110.000 379.600 C 110.000 379.820,110.360 380.000,110.800 380.000 C 111.240 380.000,111.600 380.180,111.600 380.400 C 111.600 380.620,111.865 380.800,112.188 380.800 C 112.511 380.800,113.417 381.160,114.200 381.600 C 114.983 382.040,115.889 382.400,116.212 382.400 C 116.535 382.400,116.800 382.580,116.800 382.800 C 116.800 383.020,117.160 383.200,117.600 383.200 C 118.040 383.200,118.400 383.380,118.400 383.600 C 118.400 383.820,118.760 384.000,119.200 384.000 C 119.640 384.000,120.000 384.180,120.000 384.400 C 120.000 384.620,120.439 384.800,120.976 384.800 C 121.513 384.800,122.064 384.980,122.200 385.200 C 122.336 385.420,122.797 385.600,123.224 385.600 C 123.651 385.600,124.000 385.780,124.000 386.000 C 124.000 386.220,124.279 386.400,124.619 386.400 C 124.960 386.400,125.984 386.760,126.894 387.200 C 127.805 387.640,128.789 388.000,129.081 388.000 C 129.372 388.000,129.923 388.159,130.305 388.353 C 133.096 389.773,138.907 391.600,140.632 391.600 C 141.474 391.600,141.947 391.762,141.800 392.000 C 141.656 392.233,142.055 392.400,142.753 392.400 C 143.413 392.400,144.064 392.580,144.200 392.800 C 144.336 393.020,144.966 393.200,145.600 393.200 C 146.234 393.200,146.864 393.380,147.000 393.600 C 147.136 393.820,147.766 394.000,148.400 394.000 C 149.034 394.000,149.664 394.180,149.800 394.400 C 149.936 394.620,150.667 394.800,151.424 394.800 C 152.181 394.800,152.800 394.980,152.800 395.200 C 152.800 395.420,153.700 395.600,154.800 395.600 C 155.900 395.600,156.800 395.780,156.800 396.000 C 156.800 396.220,157.509 396.400,158.376 396.400 C 159.243 396.400,160.064 396.580,160.200 396.800 C 160.336 397.020,161.337 397.200,162.424 397.200 C 163.511 397.200,164.400 397.380,164.400 397.600 C 164.400 397.822,165.467 398.000,166.800 398.000 C 168.133 398.000,169.200 398.178,169.200 398.400 C 169.200 398.628,170.389 398.800,171.967 398.800 C 173.824 398.800,174.788 398.964,174.900 399.300 C 175.031 399.693,180.409 399.800,200.000 399.800 C 219.591 399.800,224.969 399.693,225.100 399.300 C 225.212 398.964,226.176 398.800,228.033 398.800 C 229.611 398.800,230.800 398.628,230.800 398.400 C 230.800 398.178,231.867 398.000,233.200 398.000 C 234.533 398.000,235.600 397.822,235.600 397.600 C 235.600 397.380,236.590 397.200,237.800 397.200 C 239.010 397.200,240.000 397.020,240.000 396.800 C 240.000 396.580,240.720 396.400,241.600 396.400 C 242.480 396.400,243.200 396.220,243.200 396.000 C 243.200 395.780,244.100 395.600,245.200 395.600 C 246.300 395.600,247.200 395.420,247.200 395.200 C 247.200 394.980,247.920 394.800,248.800 394.800 C 249.680 394.800,250.400 394.620,250.400 394.400 C 250.400 394.180,251.019 394.000,251.776 394.000 C 252.533 394.000,253.264 393.820,253.400 393.600 C 253.536 393.380,254.177 393.200,254.824 393.200 C 255.471 393.200,256.000 393.020,256.000 392.800 C 256.000 392.580,256.630 392.400,257.400 392.400 C 258.170 392.400,258.800 392.241,258.800 392.046 C 258.800 391.851,259.787 391.569,260.994 391.418 C 262.200 391.267,263.291 390.977,263.417 390.772 C 263.544 390.567,264.076 390.400,264.600 390.400 C 265.124 390.400,265.642 390.256,265.751 390.079 C 265.860 389.903,266.861 389.510,267.975 389.207 C 269.089 388.904,270.000 388.508,270.000 388.328 C 270.000 388.147,270.362 388.000,270.805 388.000 C 271.248 388.000,271.968 387.820,272.405 387.600 C 272.842 387.380,273.558 387.020,273.995 386.800 C 274.432 386.580,275.062 386.400,275.395 386.400 C 275.728 386.400,276.000 386.253,276.000 386.072 C 276.000 385.892,276.900 385.500,278.000 385.200 C 279.100 384.900,280.000 384.508,280.000 384.328 C 280.000 384.147,280.360 384.000,280.800 384.000 C 281.240 384.000,281.600 383.820,281.600 383.600 C 281.600 383.380,281.960 383.200,282.400 383.200 C 282.840 383.200,283.200 383.020,283.200 382.800 C 283.200 382.580,283.472 382.400,283.805 382.400 C 284.138 382.400,284.723 382.239,285.105 382.042 C 285.487 381.845,287.060 381.081,288.600 380.344 C 290.140 379.607,291.460 378.868,291.533 378.702 C 291.607 378.536,292.012 378.400,292.433 378.400 C 292.855 378.400,293.200 378.220,293.200 378.000 C 293.200 377.780,293.520 377.600,293.912 377.600 C 294.303 377.600,294.883 377.240,295.200 376.800 C 295.517 376.360,296.097 376.000,296.488 376.000 C 296.880 376.000,297.200 375.840,297.200 375.645 C 297.200 375.449,297.824 375.172,298.586 375.029 C 300.655 374.641,300.630 374.355,298.166 370.110 C 294.823 364.348,293.487 362.023,291.957 359.300 C 291.494 358.475,290.973 357.620,290.800 357.400 C 290.627 357.180,290.106 356.325,289.643 355.500 C 288.000 352.575,287.148 351.085,284.191 345.958 C 282.546 343.106,281.200 340.599,281.200 340.387 C 281.200 340.174,281.020 340.000,280.800 340.000 C 280.580 340.000,280.400 339.828,280.400 339.618 C 280.400 339.407,279.835 338.282,279.144 337.118 C 277.979 335.153,277.316 334.003,275.938 331.555 C 275.642 331.030,275.310 330.510,275.199 330.400 C 275.089 330.290,274.729 329.660,274.400 329.000 C 274.071 328.340,273.711 327.710,273.601 327.600 C 273.402 327.402,273.179 327.020,271.395 323.832 C 270.893 322.934,269.564 320.611,268.441 318.668 C 267.319 316.726,266.400 314.986,266.400 314.802 C 266.400 314.617,266.265 314.407,266.100 314.333 C 265.811 314.205,264.282 311.566,263.417 309.703 C 263.187 309.210,262.865 308.805,262.700 308.803 C 262.535 308.801,262.400 308.626,262.400 308.414 C 262.400 308.202,261.860 307.176,261.200 306.136 C 260.540 305.095,260.000 304.459,260.000 304.722 C 260.000 304.985,259.722 305.200,259.383 305.200 C 259.044 305.200,258.380 305.560,257.908 306.000 C 257.436 306.440,256.813 306.800,256.525 306.800 C 256.236 306.800,256.000 306.980,256.000 307.200 C 256.000 307.420,255.640 307.600,255.200 307.600 C 254.760 307.600,254.400 307.780,254.400 308.000 C 254.400 308.220,254.040 308.400,253.600 308.400 C 253.160 308.400,252.800 308.580,252.800 308.800 C 252.800 309.020,252.440 309.200,252.000 309.200 C 251.560 309.200,251.200 309.356,251.200 309.548 C 251.200 309.739,250.615 309.990,249.900 310.106 C 249.185 310.222,247.380 310.876,245.890 311.559 C 244.399 312.241,242.914 312.800,242.590 312.800 C 242.265 312.800,242.000 312.980,242.000 313.200 C 242.000 313.420,241.460 313.600,240.800 313.600 C 240.140 313.600,239.600 313.780,239.600 314.000 C 239.600 314.220,239.060 314.400,238.400 314.400 C 237.740 314.400,237.200 314.580,237.200 314.800 C 237.200 315.020,236.660 315.200,236.000 315.200 C 235.340 315.200,234.800 315.380,234.800 315.600 C 234.800 315.820,234.260 316.000,233.600 316.000 C 232.940 316.000,232.400 316.180,232.400 316.400 C 232.400 316.620,231.680 316.800,230.800 316.800 C 229.920 316.800,229.200 316.980,229.200 317.200 C 229.200 317.420,228.570 317.600,227.800 317.600 C 227.030 317.600,226.400 317.780,226.400 318.000 C 226.400 318.220,225.500 318.400,224.400 318.400 C 223.300 318.400,222.400 318.580,222.400 318.800 C 222.400 319.020,221.421 319.200,220.224 319.200 C 219.027 319.200,217.936 319.380,217.800 319.600 C 217.664 319.820,216.404 320.000,215.000 320.000 C 213.596 320.000,212.336 320.180,212.200 320.400 C 212.044 320.652,207.537 320.800,200.000 320.800 C 192.463 320.800,187.956 320.652,187.800 320.400 C 187.664 320.180,186.314 320.000,184.800 320.000 C 183.286 320.000,181.936 319.820,181.800 319.600 C 181.664 319.380,180.674 319.200,179.600 319.200 C 178.526 319.200,177.536 319.020,177.400 318.800 C 177.264 318.580,176.353 318.400,175.376 318.400 C 174.399 318.400,173.600 318.220,173.600 318.000 C 173.600 317.780,172.981 317.600,172.224 317.600 C 171.467 317.600,170.736 317.420,170.600 317.200 C 170.464 316.980,169.733 316.800,168.976 316.800 C 168.219 316.800,167.600 316.620,167.600 316.400 C 167.600 316.180,167.071 316.000,166.424 316.000 C 165.777 316.000,165.136 315.820,165.000 315.600 C 164.864 315.380,164.324 315.200,163.800 315.200 C 163.276 315.200,162.736 315.020,162.600 314.800 C 162.464 314.580,161.924 314.400,161.400 314.400 C 160.876 314.400,160.336 314.220,160.200 314.000 C 160.064 313.780,159.513 313.600,158.976 313.600 C 158.439 313.600,158.000 313.420,158.000 313.200 C 158.000 312.980,157.674 312.800,157.275 312.800 C 156.629 312.800,154.127 311.791,152.349 310.813 C 151.991 310.616,151.046 310.332,150.249 310.183 C 149.452 310.033,148.800 309.751,148.800 309.555 C 148.800 309.360,148.440 309.200,148.000 309.200 C 147.560 309.200,147.200 309.020,147.200 308.800 C 147.200 308.580,146.840 308.400,146.400 308.400 C 145.960 308.400,145.600 308.220,145.600 308.000 C 145.600 307.780,145.240 307.600,144.800 307.600 C 144.360 307.600,144.000 307.420,144.000 307.200 C 144.000 306.980,143.722 306.800,143.383 306.800 C 143.044 306.800,142.380 306.440,141.908 306.000 C 141.436 305.560,140.813 305.200,140.525 305.200 C 140.236 305.200,140.000 305.020,140.000 304.800 C 140.000 304.580,139.730 304.400,139.400 304.400 C 139.070 304.400,138.800 304.220,138.800 304.000 C 138.800 303.780,138.440 303.600,138.000 303.600 C 137.560 303.600,137.200 303.450,137.200 303.268 C 137.200 303.085,136.705 302.680,136.100 302.368 C 135.495 302.055,134.651 301.485,134.225 301.100 C 133.798 300.715,133.213 300.400,132.925 300.400 C 132.636 300.400,132.400 300.250,132.400 300.068 C 132.400 299.885,131.905 299.480,131.300 299.168 C 130.695 298.855,129.787 298.195,129.282 297.700 C 128.777 297.205,128.214 296.800,128.032 296.800 C 127.850 296.800,127.013 296.170,126.172 295.400 C 125.331 294.630,124.511 294.000,124.348 294.000 C 124.186 294.000,123.162 293.145,122.073 292.100 C 119.816 289.934,118.482 288.800,118.190 288.800 C 117.927 288.800,111.200 282.073,111.200 281.810 C 111.200 281.525,110.101 280.208,107.900 277.856 C 106.855 276.739,106.000 275.667,106.000 275.473 C 106.000 275.279,105.460 274.617,104.800 274.000 C 104.140 273.383,103.600 272.708,103.600 272.499 C 103.600 272.290,103.060 271.554,102.400 270.863 C 101.740 270.172,101.200 269.402,101.200 269.151 C 101.200 268.899,100.884 268.403,100.497 268.047 C 100.111 267.691,99.540 266.905,99.230 266.300 C 98.919 265.695,98.515 265.200,98.332 265.200 C 98.150 265.200,98.000 264.840,98.000 264.400 C 98.000 263.960,97.850 263.600,97.668 263.600 C 97.485 263.600,97.080 263.105,96.768 262.500 C 95.581 260.200,95.373 260.123,93.800 261.412 " stroke="none" fill="#11ac41" fill-rule="evenodd"></path><path id="path1" d="M25.489 100.805 C 25.110 101.247,24.800 101.877,24.800 102.205 C 24.800 102.532,24.620 102.800,24.400 102.800 C 24.180 102.800,24.000 103.160,24.000 103.600 C 24.000 104.040,23.820 104.400,23.600 104.400 C 23.380 104.400,23.200 104.760,23.200 105.200 C 23.200 105.640,23.020 106.000,22.800 106.000 C 22.580 106.000,22.400 106.360,22.400 106.800 C 22.400 107.240,22.220 107.600,22.000 107.600 C 21.780 107.600,21.600 107.960,21.600 108.400 C 21.600 108.840,21.420 109.200,21.200 109.200 C 20.980 109.200,20.800 109.470,20.800 109.800 C 20.800 110.130,20.620 110.400,20.400 110.400 C 20.180 110.400,20.000 110.760,20.000 111.200 C 20.000 111.640,19.820 112.000,19.600 112.000 C 19.380 112.000,19.200 112.234,19.200 112.520 C 19.200 113.256,18.259 115.193,17.900 115.197 C 17.735 115.199,17.600 115.560,17.600 116.000 C 17.600 116.440,17.420 116.800,17.200 116.800 C 16.980 116.800,16.800 117.036,16.800 117.325 C 16.800 117.614,16.440 118.595,16.000 119.506 C 15.560 120.416,15.200 121.440,15.200 121.781 C 15.200 122.121,15.053 122.400,14.872 122.400 C 14.692 122.400,14.300 123.300,14.000 124.400 C 13.700 125.500,13.308 126.400,13.128 126.400 C 12.947 126.400,12.800 126.672,12.800 127.005 C 12.800 127.338,12.620 127.968,12.400 128.405 C 12.180 128.842,11.820 129.558,11.600 129.995 C 11.380 130.432,11.200 131.041,11.200 131.349 C 11.200 131.657,10.931 132.424,10.602 133.054 C 10.274 133.684,10.004 134.695,10.002 135.300 C 10.001 135.905,9.820 136.400,9.600 136.400 C 9.380 136.400,9.200 136.940,9.200 137.600 C 9.200 138.260,9.020 138.800,8.800 138.800 C 8.580 138.800,8.400 139.419,8.400 140.176 C 8.400 140.933,8.220 141.664,8.000 141.800 C 7.780 141.936,7.600 142.476,7.600 143.000 C 7.600 143.524,7.420 144.064,7.200 144.200 C 6.980 144.336,6.800 145.067,6.800 145.824 C 6.800 146.581,6.620 147.200,6.400 147.200 C 6.180 147.200,6.000 147.830,6.000 148.600 C 6.000 149.370,5.820 150.000,5.600 150.000 C 5.380 150.000,5.200 150.619,5.200 151.376 C 5.200 152.133,5.020 152.864,4.800 153.000 C 4.580 153.136,4.400 154.047,4.400 155.024 C 4.400 156.001,4.220 156.800,4.000 156.800 C 3.780 156.800,3.600 157.599,3.600 158.576 C 3.600 159.553,3.420 160.464,3.200 160.600 C 2.980 160.736,2.800 161.647,2.800 162.624 C 2.800 163.601,2.620 164.400,2.400 164.400 C 2.178 164.400,2.000 165.467,2.000 166.800 C 2.000 168.133,1.822 169.200,1.600 169.200 C 1.372 169.200,1.200 170.389,1.200 171.967 C 1.200 173.824,1.036 174.788,0.700 174.900 C -0.032 175.144,-0.032 224.856,0.700 225.100 C 1.036 225.212,1.200 226.176,1.200 228.033 C 1.200 229.611,1.372 230.800,1.600 230.800 C 1.820 230.800,2.000 231.779,2.000 232.976 C 2.000 234.173,2.180 235.264,2.400 235.400 C 2.620 235.536,2.800 236.526,2.800 237.600 C 2.800 238.674,2.980 239.664,3.200 239.800 C 3.420 239.936,3.600 240.757,3.600 241.624 C 3.600 242.491,3.780 243.200,4.000 243.200 C 4.220 243.200,4.400 244.100,4.400 245.200 C 4.400 246.300,4.580 247.200,4.800 247.200 C 5.020 247.200,5.200 247.819,5.200 248.576 C 5.200 249.333,5.380 250.064,5.600 250.200 C 5.820 250.336,6.000 250.977,6.000 251.624 C 6.000 252.271,6.180 252.800,6.400 252.800 C 6.620 252.800,6.800 253.419,6.800 254.176 C 6.800 254.933,6.980 255.664,7.200 255.800 C 7.420 255.936,7.600 256.577,7.600 257.224 C 7.600 257.871,7.780 258.400,8.000 258.400 C 8.220 258.400,8.400 259.030,8.400 259.800 C 8.400 260.570,8.580 261.200,8.800 261.200 C 9.020 261.200,9.200 261.740,9.200 262.400 C 9.200 263.060,9.380 263.600,9.600 263.600 C 9.820 263.600,10.001 264.095,10.002 264.700 C 10.004 265.305,10.274 266.316,10.602 266.946 C 10.931 267.576,11.200 268.420,11.200 268.822 C 11.200 269.224,11.380 269.664,11.600 269.800 C 11.820 269.936,12.000 270.315,12.000 270.643 C 12.000 270.971,12.360 271.984,12.800 272.894 C 13.240 273.805,13.600 274.876,13.600 275.275 C 13.600 275.674,13.780 276.000,14.000 276.000 C 14.220 276.000,14.400 276.360,14.400 276.800 C 14.400 277.240,14.580 277.600,14.800 277.600 C 15.020 277.600,15.200 277.879,15.200 278.219 C 15.200 278.560,15.560 279.584,16.000 280.494 C 16.440 281.405,16.800 282.386,16.800 282.675 C 16.800 282.964,16.980 283.200,17.200 283.200 C 17.420 283.200,17.600 283.560,17.600 284.000 C 17.600 284.440,17.780 284.800,18.000 284.800 C 18.220 284.800,18.400 285.160,18.400 285.600 C 18.400 286.040,18.580 286.400,18.800 286.400 C 19.020 286.400,19.200 286.760,19.200 287.200 C 19.200 287.640,19.380 288.000,19.600 288.000 C 19.820 288.000,20.000 288.360,20.000 288.800 C 20.000 289.240,20.180 289.600,20.400 289.600 C 20.620 289.600,20.800 289.960,20.800 290.400 C 20.800 290.840,20.980 291.200,21.200 291.200 C 21.420 291.200,21.600 291.470,21.600 291.800 C 21.600 292.130,21.780 292.400,22.000 292.400 C 22.220 292.400,22.400 292.760,22.400 293.200 C 22.400 293.640,22.580 294.000,22.800 294.000 C 23.020 294.000,23.200 294.360,23.200 294.800 C 23.200 295.240,23.380 295.600,23.600 295.600 C 23.820 295.600,24.000 295.960,24.000 296.400 C 24.000 296.840,24.180 297.200,24.400 297.200 C 24.620 297.200,24.800 297.478,24.800 297.817 C 24.800 298.156,25.168 298.828,25.618 299.311 L 26.435 300.188 28.718 298.953 C 29.973 298.273,34.927 295.441,39.728 292.658 C 44.528 289.876,48.519 287.600,48.598 287.600 C 48.677 287.600,50.208 286.700,52.000 285.600 C 53.792 284.500,55.353 283.600,55.468 283.600 C 55.583 283.600,56.154 283.267,56.738 282.861 C 57.322 282.455,58.790 281.584,60.000 280.926 C 61.210 280.269,64.540 278.371,67.400 276.710 C 70.260 275.048,73.230 273.331,74.000 272.894 C 74.770 272.457,77.650 270.793,80.400 269.197 C 83.150 267.601,86.390 265.751,87.600 265.087 C 88.810 264.422,90.278 263.545,90.862 263.139 C 91.446 262.733,92.076 262.395,92.262 262.389 C 92.804 262.371,95.791 260.000,95.271 260.000 C 95.012 260.000,94.800 259.680,94.800 259.288 C 94.800 258.897,94.440 258.317,94.000 258.000 C 93.560 257.683,93.200 257.103,93.200 256.712 C 93.200 256.320,93.020 256.000,92.800 256.000 C 92.580 256.000,92.400 255.640,92.400 255.200 C 92.400 254.760,92.220 254.400,92.000 254.400 C 91.780 254.400,91.600 254.103,91.600 253.740 C 91.600 253.377,91.131 252.072,90.558 250.840 C 89.985 249.608,89.373 248.240,89.198 247.800 C 89.023 247.360,88.502 246.147,88.040 245.104 C 87.578 244.062,87.200 242.937,87.200 242.604 C 87.200 242.272,87.020 242.000,86.800 242.000 C 86.580 242.000,86.400 241.460,86.400 240.800 C 86.400 240.140,86.220 239.600,86.000 239.600 C 85.780 239.600,85.600 239.161,85.600 238.624 C 85.600 238.087,85.420 237.536,85.200 237.400 C 84.980 237.264,84.800 236.724,84.800 236.200 C 84.800 235.676,84.620 235.136,84.400 235.000 C 84.180 234.864,84.000 234.223,84.000 233.576 C 84.000 232.929,83.820 232.400,83.600 232.400 C 83.380 232.400,83.200 231.770,83.200 231.000 C 83.200 230.230,83.020 229.600,82.800 229.600 C 82.580 229.600,82.400 228.880,82.400 228.000 C 82.400 227.120,82.220 226.400,82.000 226.400 C 81.780 226.400,81.600 225.500,81.600 224.400 C 81.600 223.300,81.420 222.400,81.200 222.400 C 80.980 222.400,80.800 221.500,80.800 220.400 C 80.800 219.300,80.620 218.400,80.400 218.400 C 80.169 218.400,80.000 217.133,80.000 215.400 C 80.000 213.667,79.831 212.400,79.600 212.400 C 79.052 212.400,79.052 188.138,79.600 187.800 C 79.820 187.664,80.000 186.314,80.000 184.800 C 80.000 183.286,80.180 181.936,80.400 181.800 C 80.620 181.664,80.800 180.663,80.800 179.576 C 80.800 178.489,80.980 177.600,81.200 177.600 C 81.420 177.600,81.600 176.700,81.600 175.600 C 81.600 174.500,81.780 173.600,82.000 173.600 C 82.220 173.600,82.400 172.981,82.400 172.224 C 82.400 171.467,82.580 170.736,82.800 170.600 C 83.020 170.464,83.200 169.733,83.200 168.976 C 83.200 168.219,83.380 167.600,83.600 167.600 C 83.820 167.600,84.000 167.071,84.000 166.424 C 84.000 165.777,84.180 165.136,84.400 165.000 C 84.620 164.864,84.800 164.324,84.800 163.800 C 84.800 163.276,84.980 162.736,85.200 162.600 C 85.420 162.464,85.600 161.913,85.600 161.376 C 85.600 160.839,85.780 160.400,86.000 160.400 C 86.220 160.400,86.400 160.038,86.400 159.595 C 86.400 159.152,86.559 158.477,86.753 158.095 C 86.948 157.713,87.290 156.950,87.513 156.400 C 87.737 155.850,88.298 154.547,88.760 153.504 C 89.222 152.462,89.600 151.337,89.600 151.004 C 89.600 150.672,89.780 150.400,90.000 150.400 C 90.220 150.400,90.400 150.040,90.400 149.600 C 90.400 149.160,90.564 148.800,90.765 148.800 C 90.966 148.800,91.251 148.080,91.400 147.200 C 91.549 146.320,91.834 145.600,92.035 145.600 C 92.236 145.600,92.400 145.240,92.400 144.800 C 92.400 144.360,92.580 144.000,92.800 144.000 C 93.020 144.000,93.200 143.764,93.200 143.475 C 93.200 143.187,93.560 142.564,94.000 142.092 C 94.440 141.620,94.800 140.956,94.800 140.617 C 94.800 140.278,95.025 139.999,95.300 139.999 C 95.575 139.998,95.170 139.608,94.400 139.133 C 91.889 137.583,84.540 133.314,81.600 131.697 C 80.610 131.153,78.990 130.210,78.000 129.602 C 76.318 128.570,62.406 120.556,58.400 118.312 C 57.410 117.757,54.980 116.357,53.000 115.200 C 51.020 114.044,48.860 112.786,48.200 112.406 C 45.350 110.766,33.294 103.830,32.200 103.201 C 31.540 102.822,30.047 101.947,28.882 101.256 C 26.380 99.772,26.374 99.771,25.489 100.805 " stroke="none" fill="#fbd304" fill-rule="evenodd"></path><path id="path2" d="M178.700 0.274 C 176.555 0.359,174.800 0.602,174.800 0.814 C 174.800 1.027,173.540 1.200,172.000 1.200 C 170.400 1.200,169.200 1.371,169.200 1.600 C 169.200 1.822,168.133 2.000,166.800 2.000 C 165.467 2.000,164.400 2.178,164.400 2.400 C 164.400 2.620,163.511 2.800,162.424 2.800 C 161.337 2.800,160.336 2.980,160.200 3.200 C 160.064 3.420,159.243 3.600,158.376 3.600 C 157.509 3.600,156.800 3.780,156.800 4.000 C 156.800 4.220,155.900 4.400,154.800 4.400 C 153.700 4.400,152.800 4.580,152.800 4.800 C 152.800 5.020,152.181 5.200,151.424 5.200 C 150.667 5.200,149.936 5.380,149.800 5.600 C 149.664 5.820,149.034 6.000,148.400 6.000 C 147.766 6.000,147.136 6.180,147.000 6.400 C 146.864 6.620,146.234 6.800,145.600 6.800 C 144.966 6.800,144.336 6.980,144.200 7.200 C 144.064 7.420,143.434 7.600,142.800 7.600 C 142.166 7.600,141.536 7.780,141.400 8.000 C 141.264 8.220,140.623 8.400,139.976 8.400 C 139.329 8.400,138.800 8.580,138.800 8.800 C 138.800 9.020,138.260 9.200,137.600 9.200 C 136.940 9.200,136.400 9.356,136.400 9.546 C 136.400 9.736,135.594 10.002,134.609 10.137 C 133.624 10.272,132.454 10.566,132.009 10.791 C 131.564 11.016,130.842 11.380,130.405 11.600 C 129.968 11.820,129.372 12.000,129.081 12.000 C 128.789 12.000,127.805 12.360,126.894 12.800 C 125.984 13.240,124.960 13.600,124.619 13.600 C 124.279 13.600,124.000 13.780,124.000 14.000 C 124.000 14.220,123.728 14.400,123.395 14.400 C 123.062 14.400,122.432 14.580,121.995 14.800 C 121.558 15.020,120.842 15.380,120.405 15.600 C 119.968 15.820,119.338 16.000,119.005 16.000 C 118.672 16.000,118.400 16.180,118.400 16.400 C 118.400 16.620,118.040 16.800,117.600 16.800 C 117.160 16.800,116.800 16.980,116.800 17.200 C 116.800 17.420,116.535 17.600,116.212 17.600 C 115.889 17.600,114.983 17.960,114.200 18.400 C 113.417 18.840,112.511 19.200,112.188 19.200 C 111.865 19.200,111.600 19.380,111.600 19.600 C 111.600 19.820,111.240 20.000,110.800 20.000 C 110.360 20.000,110.000 20.180,110.000 20.400 C 110.000 20.620,109.655 20.800,109.233 20.800 C 108.812 20.800,108.407 20.935,108.333 21.100 C 108.166 21.476,106.036 22.775,105.100 23.071 C 104.715 23.193,104.400 23.452,104.400 23.647 C 104.400 23.841,104.040 24.000,103.600 24.000 C 103.160 24.000,102.800 24.180,102.800 24.400 C 102.800 24.620,102.440 24.800,102.000 24.800 C 101.560 24.800,101.200 24.980,101.200 25.200 C 101.200 25.420,100.964 25.600,100.675 25.600 C 100.387 25.600,99.764 25.960,99.292 26.400 C 98.820 26.840,98.198 27.200,97.910 27.200 C 97.621 27.200,96.723 27.650,95.914 28.200 C 95.105 28.750,94.253 29.200,94.021 29.200 C 93.790 29.200,93.600 29.380,93.600 29.600 C 93.600 29.820,93.364 30.000,93.075 30.000 C 92.787 30.000,92.202 30.315,91.775 30.700 C 91.349 31.085,90.505 31.655,89.900 31.968 C 89.295 32.280,88.800 32.685,88.800 32.868 C 88.800 33.050,88.575 33.200,88.300 33.201 C 88.025 33.201,87.170 33.741,86.400 34.400 C 85.630 35.059,84.815 35.599,84.588 35.599 C 84.362 35.600,83.917 35.960,83.600 36.400 C 83.283 36.840,82.775 37.200,82.472 37.200 C 82.169 37.200,81.417 37.740,80.800 38.400 C 80.183 39.060,79.497 39.600,79.273 39.600 C 79.050 39.600,78.358 40.140,77.735 40.800 C 77.112 41.460,76.459 42.000,76.283 42.000 C 76.107 42.000,75.530 42.405,75.001 42.900 C 73.803 44.020,73.286 44.423,71.912 45.305 C 71.313 45.689,70.231 46.587,69.506 47.301 C 68.782 48.016,67.492 49.123,66.640 49.762 C 65.788 50.401,63.990 52.065,62.645 53.460 C 59.017 57.224,56.258 59.982,54.100 62.000 C 53.042 62.990,51.551 64.601,50.788 65.580 C 50.025 66.559,48.680 68.115,47.800 69.038 C 46.222 70.693,45.580 71.485,44.400 73.225 C 44.070 73.712,43.395 74.527,42.900 75.037 C 42.405 75.547,42.000 76.230,42.000 76.555 C 42.000 76.880,41.640 77.260,41.200 77.400 C 40.760 77.540,40.400 77.912,40.400 78.227 C 40.400 78.542,40.220 78.800,40.000 78.800 C 39.780 78.800,39.600 78.982,39.600 79.204 C 39.600 79.426,39.060 80.172,38.400 80.863 C 37.740 81.554,37.200 82.322,37.200 82.571 C 37.200 82.820,36.840 83.283,36.400 83.600 C 35.960 83.917,35.600 84.457,35.600 84.800 C 35.600 85.143,35.240 85.683,34.800 86.000 C 34.360 86.317,34.000 86.773,34.000 87.013 C 34.000 87.253,33.685 87.798,33.300 88.225 C 32.915 88.651,32.345 89.495,32.032 90.100 C 31.720 90.705,31.315 91.200,31.132 91.200 C 30.950 91.200,30.800 91.520,30.800 91.912 C 30.800 92.303,30.440 92.883,30.000 93.200 C 29.560 93.517,29.200 93.926,29.200 94.110 C 29.200 94.293,28.750 95.105,28.200 95.914 C 27.650 96.723,27.200 97.704,27.200 98.093 C 27.200 98.482,27.020 98.800,26.800 98.800 C 25.148 98.800,27.013 100.288,32.600 103.428 C 33.040 103.675,36.460 105.641,40.200 107.796 C 43.940 109.952,47.540 112.026,48.200 112.406 C 48.860 112.786,51.020 114.044,53.000 115.200 C 54.980 116.357,57.410 117.757,58.400 118.312 C 62.406 120.556,76.318 128.570,78.000 129.602 C 78.990 130.210,80.610 131.153,81.600 131.697 C 85.204 133.679,90.873 136.972,93.292 138.487 C 95.362 139.785,95.628 139.709,96.768 137.500 C 97.080 136.895,97.485 136.400,97.668 136.400 C 97.850 136.400,98.000 136.080,98.000 135.688 C 98.000 135.297,98.360 134.717,98.800 134.400 C 99.240 134.083,99.600 133.543,99.600 133.200 C 99.600 132.857,99.960 132.317,100.400 132.000 C 100.840 131.683,101.200 131.191,101.200 130.908 C 101.200 130.625,101.740 129.828,102.400 129.137 C 103.060 128.446,103.600 127.710,103.600 127.501 C 103.600 127.292,104.108 126.644,104.728 126.060 C 105.349 125.477,106.024 124.701,106.228 124.335 C 106.433 123.969,107.235 122.979,108.011 122.135 C 108.788 121.291,109.866 119.970,110.408 119.200 C 111.684 117.388,117.394 111.678,119.200 110.410 C 119.970 109.869,121.360 108.721,122.288 107.859 C 123.217 106.997,124.387 106.006,124.888 105.658 C 125.390 105.309,126.213 104.613,126.718 104.112 C 127.223 103.610,127.800 103.200,128.000 103.200 C 128.200 103.200,128.814 102.750,129.364 102.200 C 129.914 101.650,130.602 101.200,130.894 101.200 C 131.185 101.200,131.683 100.840,132.000 100.400 C 132.317 99.960,132.773 99.600,133.013 99.600 C 133.253 99.600,133.798 99.285,134.225 98.900 C 134.651 98.515,135.495 97.945,136.100 97.632 C 136.705 97.320,137.200 96.915,137.200 96.732 C 137.200 96.550,137.560 96.400,138.000 96.400 C 138.440 96.400,138.800 96.220,138.800 96.000 C 138.800 95.780,139.070 95.600,139.400 95.600 C 139.730 95.600,140.000 95.420,140.000 95.200 C 140.000 94.980,140.270 94.800,140.600 94.800 C 140.930 94.800,141.200 94.620,141.200 94.400 C 141.200 94.180,141.470 94.000,141.800 94.000 C 142.130 94.000,142.400 93.820,142.400 93.600 C 142.400 93.380,142.760 93.200,143.200 93.200 C 143.640 93.200,144.000 93.020,144.000 92.800 C 144.000 92.580,144.360 92.400,144.800 92.400 C 145.240 92.400,145.600 92.220,145.600 92.000 C 145.600 91.780,145.897 91.600,146.260 91.600 C 146.623 91.600,147.928 91.131,149.160 90.558 C 150.392 89.985,151.850 89.334,152.400 89.111 C 152.950 88.889,153.713 88.548,154.095 88.353 C 154.477 88.159,155.062 88.000,155.395 88.000 C 155.728 88.000,156.000 87.820,156.000 87.600 C 156.000 87.380,156.450 87.200,157.000 87.200 C 157.550 87.200,158.000 87.020,158.000 86.800 C 158.000 86.580,158.414 86.400,158.920 86.400 C 159.426 86.400,160.011 86.251,160.220 86.070 C 160.429 85.888,161.410 85.510,162.400 85.231 C 163.390 84.951,164.513 84.560,164.895 84.361 C 165.277 84.162,166.042 84.000,166.595 84.000 C 167.148 84.000,167.600 83.820,167.600 83.600 C 167.600 83.380,168.219 83.200,168.976 83.200 C 169.733 83.200,170.464 83.020,170.600 82.800 C 170.736 82.580,171.467 82.400,172.224 82.400 C 172.981 82.400,173.600 82.220,173.600 82.000 C 173.600 81.780,174.399 81.600,175.376 81.600 C 176.353 81.600,177.264 81.420,177.400 81.200 C 177.536 80.980,178.537 80.800,179.624 80.800 C 180.711 80.800,181.600 80.620,181.600 80.400 C 181.600 80.169,182.859 80.000,184.576 80.000 C 186.213 80.000,187.664 79.820,187.800 79.600 C 187.956 79.348,192.463 79.200,200.000 79.200 C 207.537 79.200,212.044 79.348,212.200 79.600 C 212.336 79.820,213.697 80.000,215.224 80.000 C 216.808 80.000,218.000 80.172,218.000 80.400 C 218.000 80.620,218.990 80.800,220.200 80.800 C 221.410 80.800,222.400 80.980,222.400 81.200 C 222.400 81.420,223.300 81.600,224.400 81.600 C 225.500 81.600,226.400 81.780,226.400 82.000 C 226.400 82.220,227.019 82.400,227.776 82.400 C 228.533 82.400,229.264 82.580,229.400 82.800 C 229.536 83.020,230.267 83.200,231.024 83.200 C 231.781 83.200,232.400 83.380,232.400 83.600 C 232.400 83.820,232.929 84.000,233.576 84.000 C 234.223 84.000,234.864 84.180,235.000 84.400 C 235.136 84.620,235.676 84.800,236.200 84.800 C 236.724 84.800,237.264 84.980,237.400 85.200 C 237.536 85.420,238.076 85.600,238.600 85.600 C 239.124 85.600,239.664 85.780,239.800 86.000 C 239.936 86.220,240.487 86.400,241.024 86.400 C 241.561 86.400,242.000 86.580,242.000 86.800 C 242.000 87.020,242.439 87.200,242.976 87.200 C 243.513 87.200,244.064 87.380,244.200 87.600 C 244.336 87.820,244.797 88.000,245.224 88.000 C 245.651 88.000,246.000 88.180,246.000 88.400 C 246.000 88.620,246.450 88.800,247.000 88.800 C 247.550 88.800,248.000 88.980,248.000 89.200 C 248.000 89.420,248.239 89.600,248.532 89.600 C 248.825 89.600,249.950 90.049,251.032 90.598 C 252.114 91.147,253.315 91.597,253.700 91.598 C 254.085 91.599,254.400 91.780,254.400 92.000 C 254.400 92.220,254.760 92.400,255.200 92.400 C 255.640 92.400,256.000 92.580,256.000 92.800 C 256.000 93.020,256.360 93.200,256.800 93.200 C 257.240 93.200,257.600 93.380,257.600 93.600 C 257.600 93.820,257.920 94.000,258.312 94.000 C 258.703 94.000,259.283 94.360,259.600 94.800 C 259.917 95.240,260.407 95.600,260.688 95.600 C 260.970 95.600,261.200 95.780,261.200 96.000 C 261.200 96.220,261.560 96.400,262.000 96.400 C 262.440 96.400,262.800 96.580,262.800 96.800 C 262.800 97.020,263.070 97.200,263.400 97.200 C 263.730 97.200,264.000 97.380,264.000 97.600 C 264.000 97.820,264.270 98.000,264.600 98.000 C 264.930 98.000,265.200 98.150,265.200 98.332 C 265.200 98.515,265.695 98.920,266.300 99.232 C 266.905 99.545,267.749 100.115,268.175 100.500 C 268.602 100.885,269.147 101.200,269.387 101.200 C 269.627 101.200,270.083 101.560,270.400 102.000 C 270.717 102.440,271.172 102.800,271.410 102.800 C 271.649 102.800,272.531 103.430,273.372 104.200 C 274.213 104.970,275.035 105.600,275.200 105.600 C 275.365 105.600,276.192 106.234,277.038 107.009 C 277.997 107.887,279.150 108.510,280.097 108.662 C 280.934 108.796,281.714 109.061,281.832 109.253 C 282.138 109.746,289.600 109.696,289.600 109.200 C 289.600 108.980,289.969 108.800,290.420 108.800 C 292.103 108.800,293.864 107.349,301.253 99.871 C 305.422 95.652,308.987 92.047,309.176 91.859 C 309.841 91.198,325.123 75.914,325.459 75.573 C 325.647 75.383,327.825 73.247,330.300 70.826 C 332.775 68.406,334.800 66.150,334.800 65.813 C 334.800 65.476,334.980 65.200,335.200 65.200 C 335.420 65.200,335.600 64.671,335.600 64.024 C 335.600 63.377,335.780 62.736,336.000 62.600 C 336.549 62.261,336.505 56.982,335.939 55.228 C 334.956 52.186,334.254 51.069,331.764 48.578 C 330.345 47.160,329.028 46.000,328.835 46.000 C 328.519 46.000,327.518 45.185,324.914 42.809 C 324.427 42.364,323.931 42.000,323.811 42.000 C 323.691 42.000,323.028 41.460,322.337 40.800 C 321.646 40.140,320.926 39.600,320.737 39.600 C 320.548 39.600,319.828 39.060,319.137 38.400 C 318.446 37.740,317.678 37.200,317.429 37.200 C 317.180 37.200,316.717 36.840,316.400 36.400 C 316.083 35.960,315.543 35.600,315.200 35.600 C 314.857 35.600,314.317 35.240,314.000 34.800 C 313.683 34.360,313.185 34.000,312.894 34.000 C 312.602 34.000,311.928 33.564,311.395 33.031 C 310.862 32.498,310.060 31.946,309.613 31.804 C 309.166 31.662,308.800 31.378,308.800 31.173 C 308.800 30.968,308.564 30.800,308.275 30.800 C 307.987 30.800,307.364 30.440,306.892 30.000 C 306.420 29.560,305.926 29.200,305.796 29.200 C 305.665 29.200,304.895 28.750,304.086 28.200 C 303.277 27.650,302.296 27.200,301.907 27.200 C 301.518 27.200,301.200 27.020,301.200 26.800 C 301.200 26.580,300.880 26.400,300.488 26.400 C 300.097 26.400,299.517 26.040,299.200 25.600 C 298.883 25.160,298.303 24.800,297.912 24.800 C 297.520 24.800,297.200 24.620,297.200 24.400 C 297.200 24.180,296.840 24.000,296.400 24.000 C 295.960 24.000,295.600 23.820,295.600 23.600 C 295.600 23.380,295.240 23.200,294.800 23.200 C 294.360 23.200,294.000 23.020,294.000 22.800 C 294.000 22.580,293.640 22.400,293.200 22.400 C 292.760 22.400,292.400 22.220,292.400 22.000 C 292.400 21.780,292.130 21.600,291.800 21.600 C 291.470 21.600,291.200 21.420,291.200 21.200 C 291.200 20.980,290.840 20.800,290.400 20.800 C 289.960 20.800,289.600 20.620,289.600 20.400 C 289.600 20.180,289.240 20.000,288.800 20.000 C 288.360 20.000,288.000 19.820,288.000 19.600 C 288.000 19.380,287.640 19.200,287.200 19.200 C 286.760 19.200,286.400 19.020,286.400 18.800 C 286.400 18.580,286.040 18.400,285.600 18.400 C 285.160 18.400,284.800 18.220,284.800 18.000 C 284.800 17.780,284.440 17.600,284.000 17.600 C 283.560 17.600,283.200 17.420,283.200 17.200 C 283.200 16.980,282.840 16.800,282.400 16.800 C 281.960 16.800,281.600 16.620,281.600 16.400 C 281.600 16.180,281.251 16.000,280.824 16.000 C 280.397 16.000,279.936 15.820,279.800 15.600 C 279.664 15.380,279.113 15.200,278.576 15.200 C 278.039 15.200,277.600 15.020,277.600 14.800 C 277.600 14.580,277.240 14.400,276.800 14.400 C 276.360 14.400,276.000 14.220,276.000 14.000 C 276.000 13.780,275.674 13.600,275.275 13.600 C 274.876 13.600,273.805 13.240,272.894 12.800 C 271.984 12.360,270.971 12.000,270.643 12.000 C 270.315 12.000,269.936 11.820,269.800 11.600 C 269.664 11.380,269.113 11.200,268.576 11.200 C 268.039 11.200,267.600 11.037,267.600 10.838 C 267.600 10.638,266.700 10.351,265.600 10.200 C 264.500 10.049,263.600 9.762,263.600 9.562 C 263.600 9.363,262.981 9.200,262.224 9.200 C 261.467 9.200,260.736 9.020,260.600 8.800 C 260.464 8.580,259.913 8.400,259.376 8.400 C 258.839 8.400,258.400 8.220,258.400 8.000 C 258.400 7.780,257.860 7.600,257.200 7.600 C 256.540 7.600,256.000 7.420,256.000 7.200 C 256.000 6.980,255.280 6.800,254.400 6.800 C 253.520 6.800,252.800 6.620,252.800 6.400 C 252.800 6.180,252.181 6.000,251.424 6.000 C 250.667 6.000,249.936 5.820,249.800 5.600 C 249.664 5.380,249.034 5.200,248.400 5.200 C 247.766 5.200,247.136 5.020,247.000 4.800 C 246.864 4.580,245.953 4.400,244.976 4.400 C 243.999 4.400,243.200 4.220,243.200 4.000 C 243.200 3.780,242.390 3.600,241.400 3.600 C 240.410 3.600,239.600 3.420,239.600 3.200 C 239.600 2.980,238.700 2.800,237.600 2.800 C 236.500 2.800,235.600 2.620,235.600 2.400 C 235.600 2.178,234.533 2.000,233.200 2.000 C 231.867 2.000,230.800 1.822,230.800 1.600 C 230.800 1.373,229.627 1.200,228.080 1.200 C 226.483 1.200,225.160 1.000,224.875 0.715 C 224.395 0.235,188.355 -0.109,178.700 0.274 " stroke="none" fill="#ee4524" fill-rule="evenodd"></path><path id="path3" d="M218.200 164.800 C 218.064 165.020,217.513 165.200,216.976 165.200 C 216.439 165.200,216.000 165.380,216.000 165.600 C 216.000 165.820,215.640 166.000,215.200 166.000 C 214.760 166.000,214.400 166.180,214.400 166.400 C 214.400 166.620,214.153 166.800,213.851 166.800 C 213.130 166.800,210.000 170.207,210.000 170.991 C 210.000 171.326,209.820 171.600,209.600 171.600 C 209.380 171.600,209.200 172.140,209.200 172.800 C 209.200 173.460,209.020 174.000,208.800 174.000 C 208.537 174.000,208.400 184.392,208.400 204.376 C 208.400 224.196,208.539 234.839,208.800 235.000 C 209.020 235.136,209.200 235.687,209.200 236.224 C 209.200 236.761,209.380 237.200,209.600 237.200 C 209.820 237.200,210.000 237.469,210.000 237.799 C 210.000 238.698,212.784 241.600,213.647 241.600 C 214.061 241.600,214.400 241.780,214.400 242.000 C 214.400 242.220,214.670 242.400,215.000 242.400 C 215.330 242.400,215.600 242.580,215.600 242.800 C 215.600 243.020,216.140 243.200,216.800 243.200 C 217.460 243.200,218.000 243.379,218.000 243.598 C 218.000 243.860,234.191 244.032,265.180 244.098 L 312.359 244.200 311.840 245.400 C 311.554 246.060,311.023 247.281,310.660 248.114 C 310.297 248.946,310.000 249.981,310.000 250.414 C 310.000 250.846,309.820 251.200,309.600 251.200 C 309.380 251.200,309.200 251.560,309.200 252.000 C 309.200 252.440,309.020 252.800,308.800 252.800 C 308.580 252.800,308.400 253.160,308.400 253.600 C 308.400 254.040,308.220 254.400,308.000 254.400 C 307.780 254.400,307.600 254.760,307.600 255.200 C 307.600 255.640,307.420 256.000,307.200 256.000 C 306.980 256.000,306.800 256.236,306.800 256.525 C 306.800 256.813,306.440 257.436,306.000 257.908 C 305.560 258.380,305.200 259.044,305.200 259.383 C 305.200 259.722,305.020 260.000,304.800 260.000 C 304.580 260.000,304.400 260.270,304.400 260.600 C 304.400 260.930,304.220 261.200,304.000 261.200 C 303.780 261.200,303.600 261.436,303.600 261.725 C 303.600 262.013,303.240 262.636,302.800 263.108 C 302.360 263.580,302.000 264.244,302.000 264.583 C 302.000 264.922,301.850 265.200,301.668 265.200 C 301.485 265.200,301.081 265.695,300.770 266.300 C 300.460 266.905,299.889 267.691,299.503 268.047 C 299.116 268.403,298.800 268.853,298.799 269.047 C 298.799 269.241,298.259 270.030,297.600 270.800 C 296.941 271.570,296.401 272.335,296.401 272.499 C 296.400 272.664,295.770 273.466,295.000 274.282 C 294.230 275.099,293.600 276.089,293.600 276.483 C 293.600 276.878,293.458 277.200,293.283 277.200 C 292.832 277.200,290.380 279.601,289.200 281.198 C 287.909 282.946,282.946 287.909,281.198 289.200 C 279.601 290.380,277.200 292.832,277.200 293.283 C 277.200 293.458,276.878 293.600,276.483 293.600 C 276.089 293.600,275.099 294.230,274.282 295.000 C 273.466 295.770,272.645 296.400,272.458 296.400 C 272.272 296.400,271.594 296.895,270.952 297.500 C 270.311 298.105,269.294 298.855,268.693 299.168 C 268.092 299.480,267.600 299.885,267.600 300.068 C 267.600 300.250,267.364 300.400,267.075 300.400 C 266.787 300.400,266.202 300.715,265.775 301.100 C 265.349 301.485,264.535 302.039,263.966 302.332 C 263.398 302.625,262.425 303.269,261.804 303.764 L 260.675 304.664 261.500 305.832 C 262.757 307.614,271.200 322.408,271.200 322.830 C 271.200 323.033,271.359 323.200,271.553 323.200 C 271.748 323.200,272.010 323.515,272.136 323.900 C 272.262 324.285,272.848 325.410,273.439 326.400 C 274.569 328.293,275.447 329.816,276.843 332.300 C 277.306 333.125,277.827 333.980,278.000 334.200 C 278.173 334.420,278.719 335.320,279.214 336.200 C 279.708 337.080,280.563 338.601,281.114 339.579 C 281.664 340.557,282.628 342.230,283.257 343.297 C 283.886 344.363,284.400 345.299,284.400 345.377 C 284.400 345.455,285.137 346.731,286.037 348.212 C 286.937 349.694,288.017 351.513,288.437 352.253 C 289.184 353.571,290.050 355.090,291.544 357.700 C 291.953 358.415,292.853 359.953,293.544 361.118 C 294.235 362.282,294.800 363.334,294.800 363.456 C 294.800 363.577,295.140 364.154,295.556 364.738 C 296.529 366.105,298.583 369.699,299.706 372.000 C 300.821 374.286,300.792 374.249,301.122 373.788 C 301.275 373.575,301.805 373.175,302.300 372.900 C 302.795 372.625,303.605 372.175,304.100 371.900 C 304.595 371.625,305.090 371.310,305.200 371.199 C 305.310 371.089,305.892 370.745,306.493 370.435 C 307.095 370.126,307.905 369.586,308.293 369.236 C 308.682 368.886,309.495 368.345,310.100 368.032 C 310.705 367.720,311.200 367.315,311.200 367.132 C 311.200 366.950,311.520 366.800,311.912 366.800 C 312.303 366.800,312.883 366.440,313.200 366.000 C 313.517 365.560,313.962 365.200,314.188 365.199 C 314.415 365.199,315.230 364.659,316.000 364.000 C 316.770 363.341,317.585 362.801,317.812 362.801 C 318.038 362.800,318.483 362.440,318.800 362.000 C 319.117 361.560,319.607 361.200,319.888 361.200 C 320.170 361.200,320.400 361.020,320.400 360.800 C 320.400 360.580,320.588 360.400,320.818 360.400 C 321.048 360.400,321.686 359.950,322.236 359.400 C 322.786 358.850,323.455 358.400,323.723 358.400 C 323.990 358.400,324.655 357.860,325.200 357.200 C 325.745 356.540,326.373 355.997,326.596 355.994 C 326.818 355.990,327.981 355.090,329.179 353.994 C 330.378 352.897,331.500 352.000,331.674 352.000 C 332.597 352.000,352.595 331.841,354.688 328.800 C 355.066 328.250,355.742 327.412,356.188 326.938 C 356.635 326.463,357.360 325.601,357.800 325.022 C 358.240 324.443,359.005 323.534,359.500 323.003 C 359.995 322.471,360.400 321.848,360.400 321.618 C 360.400 321.388,360.580 321.200,360.800 321.200 C 361.020 321.200,361.200 321.018,361.200 320.796 C 361.200 320.574,361.740 319.828,362.400 319.137 C 363.060 318.446,363.600 317.678,363.600 317.429 C 363.600 317.180,363.960 316.717,364.400 316.400 C 364.840 316.083,365.200 315.569,365.200 315.259 C 365.200 314.948,365.516 314.403,365.903 314.047 C 366.289 313.691,366.860 312.905,367.170 312.300 C 367.481 311.695,367.885 311.200,368.068 311.200 C 368.250 311.200,368.400 310.906,368.400 310.547 C 368.400 310.188,368.716 309.603,369.103 309.247 C 369.489 308.891,370.060 308.105,370.370 307.500 C 370.681 306.895,371.085 306.400,371.268 306.400 C 371.450 306.400,371.600 306.238,371.600 306.041 C 371.600 305.843,372.294 304.538,373.142 303.141 C 373.991 301.743,374.813 300.195,374.969 299.700 C 375.126 299.205,375.422 298.800,375.627 298.800 C 375.832 298.800,376.000 298.440,376.000 298.000 C 376.000 297.560,376.180 297.200,376.400 297.200 C 376.620 297.200,376.800 296.840,376.800 296.400 C 376.800 295.960,376.980 295.600,377.200 295.600 C 377.420 295.600,377.600 295.240,377.600 294.800 C 377.600 294.360,377.780 294.000,378.000 294.000 C 378.220 294.000,378.400 293.640,378.400 293.200 C 378.400 292.760,378.580 292.400,378.800 292.400 C 379.020 292.400,379.200 292.130,379.200 291.800 C 379.200 291.470,379.380 291.200,379.600 291.200 C 379.820 291.200,380.000 290.840,380.000 290.400 C 380.000 289.960,380.180 289.600,380.400 289.600 C 380.620 289.600,380.800 289.240,380.800 288.800 C 380.800 288.360,380.980 288.000,381.200 288.000 C 381.420 288.000,381.600 287.640,381.600 287.200 C 381.600 286.760,381.780 286.400,382.000 286.400 C 382.220 286.400,382.400 286.040,382.400 285.600 C 382.400 285.160,382.580 284.800,382.800 284.800 C 383.020 284.800,383.200 284.440,383.200 284.000 C 383.200 283.560,383.380 283.200,383.600 283.200 C 383.820 283.200,384.000 282.851,384.000 282.424 C 384.000 281.997,384.180 281.536,384.400 281.400 C 384.620 281.264,384.800 280.713,384.800 280.176 C 384.800 279.639,384.980 279.200,385.200 279.200 C 385.420 279.200,385.600 278.840,385.600 278.400 C 385.600 277.960,385.780 277.600,386.000 277.600 C 386.220 277.600,386.400 277.060,386.400 276.400 C 386.400 275.740,386.580 275.200,386.800 275.200 C 387.020 275.200,387.200 274.840,387.200 274.400 C 387.200 273.960,387.380 273.600,387.600 273.600 C 387.820 273.600,388.000 273.238,388.000 272.795 C 388.000 272.352,388.159 271.677,388.353 271.295 C 389.610 268.824,391.600 262.754,391.600 261.392 C 391.600 260.846,391.780 260.400,392.000 260.400 C 392.220 260.400,392.400 259.781,392.400 259.024 C 392.400 258.267,392.580 257.536,392.800 257.400 C 393.020 257.264,393.200 256.623,393.200 255.976 C 393.200 255.329,393.380 254.800,393.600 254.800 C 393.820 254.800,394.000 254.170,394.000 253.400 C 394.000 252.630,394.180 252.000,394.400 252.000 C 394.620 252.000,394.800 251.280,394.800 250.400 C 394.800 249.520,394.980 248.800,395.200 248.800 C 395.420 248.800,395.600 247.900,395.600 246.800 C 395.600 245.700,395.780 244.800,396.000 244.800 C 396.220 244.800,396.400 244.091,396.400 243.224 C 396.400 242.357,396.580 241.536,396.800 241.400 C 397.020 241.264,397.200 240.263,397.200 239.176 C 397.200 238.089,397.380 237.200,397.600 237.200 C 397.822 237.200,398.000 236.133,398.000 234.800 C 398.000 233.467,398.178 232.400,398.400 232.400 C 398.628 232.400,398.800 231.211,398.800 229.633 C 398.800 227.776,398.964 226.812,399.300 226.700 C 399.692 226.569,399.800 221.569,399.800 203.487 C 399.800 185.583,399.688 180.329,399.300 179.940 C 399.025 179.665,398.800 178.576,398.800 177.520 C 398.800 176.464,398.620 175.600,398.400 175.600 C 398.180 175.600,398.000 175.065,398.000 174.412 C 398.000 172.234,393.115 166.000,391.409 166.000 C 391.074 166.000,390.800 165.820,390.800 165.600 C 390.800 165.380,390.260 165.200,389.600 165.200 C 388.940 165.200,388.400 165.020,388.400 164.800 C 388.400 164.535,359.808 164.400,303.424 164.400 C 247.204 164.400,218.364 164.535,218.200 164.800 " stroke="none" fill="#147ce4" fill-rule="evenodd"></path><path id="path4" d="M260.400 304.618 C 260.400 304.836,260.850 305.677,261.400 306.486 C 261.950 307.295,262.400 308.132,262.400 308.345 C 262.400 308.559,262.535 308.793,262.700 308.867 C 262.989 308.995,264.518 311.634,265.383 313.497 C 265.613 313.990,265.935 314.395,266.100 314.397 C 266.265 314.399,266.400 314.566,266.400 314.768 C 266.400 314.971,267.319 316.726,268.441 318.668 C 269.564 320.611,270.893 322.934,271.395 323.832 C 273.179 327.020,273.402 327.402,273.601 327.600 C 273.711 327.710,274.071 328.340,274.400 329.000 C 274.729 329.660,275.089 330.290,275.199 330.400 C 275.310 330.510,275.642 331.030,275.938 331.555 C 277.316 334.003,277.979 335.153,279.144 337.118 C 279.835 338.282,280.400 339.407,280.400 339.618 C 280.400 339.828,280.580 340.000,280.800 340.000 C 281.020 340.000,281.200 340.174,281.200 340.387 C 281.200 340.599,282.546 343.106,284.191 345.958 C 287.148 351.085,288.000 352.575,289.643 355.500 C 290.106 356.325,290.627 357.180,290.800 357.400 C 290.973 357.620,291.494 358.475,291.957 359.300 C 293.057 361.257,294.044 362.983,295.334 365.200 C 295.909 366.190,297.226 368.484,298.260 370.297 C 299.294 372.110,300.220 373.513,300.318 373.415 C 300.417 373.317,299.907 372.193,299.187 370.918 C 298.467 369.643,297.524 367.970,297.092 367.200 C 296.660 366.430,295.967 365.322,295.553 364.738 C 295.139 364.154,294.800 363.577,294.800 363.456 C 294.800 363.334,294.235 362.282,293.544 361.118 C 292.853 359.953,291.953 358.415,291.544 357.700 C 290.050 355.090,289.184 353.571,288.437 352.253 C 288.017 351.513,286.937 349.694,286.037 348.212 C 285.137 346.731,284.400 345.455,284.400 345.377 C 284.400 345.299,283.886 344.363,283.257 343.297 C 282.628 342.230,281.664 340.557,281.114 339.579 C 280.563 338.601,279.708 337.080,279.214 336.200 C 278.719 335.320,278.173 334.420,278.000 334.200 C 277.827 333.980,277.306 333.125,276.843 332.300 C 275.447 329.816,274.569 328.293,273.439 326.400 C 272.848 325.410,272.262 324.285,272.136 323.900 C 272.010 323.515,271.748 323.200,271.553 323.200 C 271.359 323.200,271.200 323.038,271.200 322.840 C 271.200 322.452,262.260 306.848,261.100 305.210 C 260.715 304.667,260.400 304.400,260.400 304.618 " stroke="none" fill="#149490" fill-rule="evenodd"></path></g></svg>